<?xml version="1.0" encoding="utf-8"?>
<!-- Generator: Adobe Illustrator 23.0.2, SVG Export Plug-In . SVG Version: 6.00 Build 0)  -->
<svg version="1.1" id="Layer_1" xmlns="http://www.w3.org/2000/svg" xmlns:xlink="http://www.w3.org/1999/xlink" x="0px" y="0px"
	 viewBox="0 0 16 16" style="enable-background:new 0 0 16 16;" xml:space="preserve">
<style type="text/css">
	.st0{fill:#FFFFFF;}
	.st1{fill:#44ADA4;}
</style>
<g>
	<g>
		<path class="st0" d="M-97.61-72.68c0,34.78,0,69.57,0,104.35c-2.39,5.98-6.92,7.82-13.18,7.8c-44.67-0.15-89.34-0.14-134-0.01
			c-6.14,0.02-10.53-1.94-12.82-7.79c0-34.78,0-69.57,0-104.35c2.29-5.86,6.68-7.81,12.82-7.79c44.67,0.13,89.34,0.14,134.01-0.01
			C-104.52-80.51-100.01-78.64-97.61-72.68z M-177.61-6.53c23.01-15.82,45.73-31.42,68.42-47.05c0.63-0.43,1.51-1.13,1.52-1.72
			c0.12-5.03,0.07-10.06,0.07-15.01c-46.94,0-93.35,0-140.05,0c0,4.56,0.11,8.91-0.05,13.26c-0.08,2.13,0.52,3.5,2.38,4.63
			c2.93,1.77,5.71,3.8,8.55,5.73C-217.11-33.35-197.45-20-177.61-6.53z M-239.61,29.2c41.36,0,82.8,0,124.11,0
			c-13.13-13.09-26.18-26.1-39.43-39.31c-7.39,5.06-15.05,10.3-22.67,15.52c-7.9-5.34-15.58-10.54-22.75-15.39
			C-213.71,3.35-226.67,16.28-239.61,29.2z M-107.78,21.53c0-21.13,0-42.3,0-64.03c-13,8.92-25.59,17.56-38.09,26.15
			C-133.07-3.62-120.5,8.88-107.78,21.53z M-247.33-41.88c0,21.53,0,42.54,0,62.82c12.33-12.29,24.86-24.78,37.5-37.36
			C-222.03-24.7-234.51-33.18-247.33-41.88z"/>
	</g>
</g>
<path class="st1" d="M8,0C3.58,0,0,3.58,0,8s3.58,8,8,8s8-3.58,8-8S12.42,0,8,0z M11.08,4.89L8,12.08
	c-0.24,0.55-0.41,0.99-1.13,0.99c-0.75,0-1.03-0.59-1.03-0.93c0-0.36,0.11-0.6,0.35-1.15l0.69-1.56L5.11,5.2
	C4.87,4.64,4.67,4.15,4.67,3.91c0-0.61,0.49-0.97,1.01-0.97c0.51,0,0.87,0.27,1.07,0.79l1.23,3.17l1.16-2.83
	c0.27-0.64,0.56-1.13,1.13-1.13c0.64,0,1.07,0.41,1.07,1.05C11.33,4.29,11.19,4.65,11.08,4.89z"/>
</svg>
