<?xml version="1.0" encoding="utf-8"?>
<!-- Generator: Adobe Illustrator 23.1.0, SVG Export Plug-In . SVG Version: 6.00 Build 0)  -->
<svg version="1.1" id="Layer_1" xmlns="http://www.w3.org/2000/svg" xmlns:xlink="http://www.w3.org/1999/xlink" x="0px" y="0px"
	 viewBox="0 0 17 493" style="enable-background:new 0 0 17 493;" xml:space="preserve">
<style type="text/css">
	.st0{fill:#38ABA4;}
	.st1{fill:#939393;}
	.st2{fill:#FFFFFF;}
</style>
<g id="Modmail_x2F_Active">
	<path class="st0" d="M8.5,376.8c1,0.4,2.5,0.9,4.3,0.9c0.2,0,0.4,0,0.6,0c0,0.9,0,1.9,0,2.9c0,4-3.7,7.6-5,8c-1.3-0.3-5-4-5-8
		l0-2.8h0.6C6,377.7,7.6,377.2,8.5,376.8 M8.5,374.5c0,0-1.8,1.2-4.4,1.2s-2.6,0-2.6,0l0,4.9c0,5.2,4.9,10,7,10s6.9-4.7,7-10
		c0-2.1,0-4.9,0-4.9s0,0-2.6,0S8.5,374.5,8.5,374.5L8.5,374.5z"/>
	<path class="st0" d="M4.4,381.4c0,3.1,2.9,5.8,4.1,5.8v-9.4c0,0-1,0.7-2.6,0.7s-1.5,0-1.5,0L4.4,381.4z"/>
</g>
<g id="Modmail">
	<path class="st1" d="M8.5,359.8c1,0.4,2.5,0.9,4.3,0.9c0.2,0,0.4,0,0.6,0c0,0.9,0,1.9,0,2.9c0,4-3.7,7.6-5,8c-1.3-0.3-5-4-5-8
		l0-2.8h0.6C6,360.7,7.6,360.2,8.5,359.8 M8.5,357.5c0,0-1.8,1.2-4.4,1.2s-2.6,0-2.6,0l0,4.9c0,5.2,4.9,10,7,10s6.9-4.7,7-10
		c0-2.1,0-4.9,0-4.9s0,0-2.6,0S8.5,357.5,8.5,357.5L8.5,357.5z"/>
	<path class="st1" d="M4.4,364.4c0,3.1,2.9,5.8,4.1,5.8v-9.4c0,0-1,0.7-2.6,0.7s-1.5,0-1.5,0L4.4,364.4z"/>
</g>
<polygon id="Expand" class="st1" points="15,345.5 9.5,345.5 9.5,340 5.5,340 5.5,345.5 0,345.5 0,349.5 5.5,349.5 5.5,355 9.5,355 
	9.5,349.5 15,349.5 "/>
<g id="Collapse">
	<path class="st1" d="M0,328.5h15v4H0V328.5z"/>
</g>
<polygon id="Incoming_Message" class="st0" points="12.3,314.7 4.5,307 1,310.5 8.7,318.3 5,322 16,322 16,311 "/>
<polygon id="Outgoing_Message" class="st0" points="4.7,297.3 12.5,305 16,301.5 8.3,293.7 12,290 1,290 1,301 "/>
<path id="Unarchive" class="st1" d="M16.5,275.5l-1.8-3H2.3l-1.8,3v13h16V275.5z M9.7,285.7H7.3v-5.3H4.7l3.8-3.8l3.8,3.8H9.7V285.7
	z M1.4,275.5l1.2-2.3h11.7l1.2,2.3H1.4z"/>
<g id="Mark_Read">
	<path class="st1" d="M4.9,266.5c-1.8-1.5-3.7-3.4-4.5-4.3v8.8L4.9,266.5z"/>
	<path class="st1" d="M8.4,255.5c-1.7,0-5.7,4.1-7.4,6h14.9C14.2,259.6,10.2,255.5,8.4,255.5z"/>
	<path class="st1" d="M16.5,262c-0.7,0.8-2.7,2.9-4.6,4.5l4.6,4.6V262z"/>
	<path class="st1" d="M11.2,267c-1,0.7-2,1.3-2.8,1.3c-0.8,0-1.7-0.5-2.8-1.3l-4.5,4.5h14.5L11.2,267z"/>
</g>
<path id="Checked" class="st0" d="M13.4,239H3.6c-1.4,0-2.6,1.2-2.6,2.6v9.8c0,1.4,1.2,2.6,2.6,2.6h9.8c1.4,0,2.6-1.2,2.6-2.6v-9.8
	C16,240.2,14.8,239,13.4,239z M7.1,250.6l-4.2-4.2l1.3-1.3l2.9,2.9l5.9-5.9l1.3,1.3L7.1,250.6z"/>
<path id="Unchecked" class="st1" d="M13.4,223.9c0.4,0,0.7,0.3,0.7,0.7v9.8c0,0.4-0.3,0.7-0.7,0.7H3.6c-0.4,0-0.7-0.3-0.7-0.7v-9.8
	c0-0.4,0.3-0.7,0.7-0.7H13.4 M13.4,222H3.6c-1.4,0-2.6,1.2-2.6,2.6v9.8c0,1.4,1.2,2.6,2.6,2.6h9.8c1.4,0,2.6-1.2,2.6-2.6v-9.8
	C16,223.2,14.8,222,13.4,222L13.4,222z"/>
<path id="Unsaved" class="st1" d="M8.5,208.3l1.1,2.3l0.4,0.7l0.8,0.1l2.5,0.4l-1.8,1.8l-0.6,0.5l0.1,0.8l0.4,2.5l-2.3-1.2l-0.7-0.4
	l-0.7,0.4l-2.3,1.2l0.4-2.5l0.1-0.8l-0.6-0.5l-1.8-1.8l2.5-0.4l0.8-0.1l0.3-0.7L8.5,208.3 M8.5,205L6,209.9l-5.5,0.8l4,3.8L3.6,220
	l4.9-2.6l4.9,2.6l-0.9-5.4l4-3.8l-5.5-0.8L8.5,205L8.5,205z"/>
<polygon id="Saved_x2F_Active" class="st0" points="8.5,188 11,192.9 16.5,193.7 12.5,197.6 13.4,203 8.5,200.4 3.6,203 4.5,197.6 
	0.5,193.7 6,192.9 "/>
<polygon id="Saved" class="st1" points="8.5,171 11,175.9 16.5,176.7 12.5,180.6 13.4,186 8.5,183.4 3.6,186 4.5,180.6 0.5,176.7 
	6,175.9 "/>
<path id="Drafts_Active" class="st0" d="M8.5,119.5L8.5,119.5c-4.4,0-8,3.6-8,8s3.6,8,8,8c2.2,0,4.2-0.9,5.7-2.3s2.3-3.4,2.3-5.7
	C16.5,123.1,12.9,119.5,8.5,119.5z M13.3,132.2l-4.8-4.8h0v-6.7c3.7,0,6.8,3,6.8,6.8C15.3,129.3,14.5,131,13.3,132.2z"/>
<path id="Drafts" class="st1" d="M8.5,102.5L8.5,102.5c-4.4,0-8,3.6-8,8s3.6,8,8,8c2.2,0,4.2-0.9,5.7-2.3s2.3-3.4,2.3-5.7
	C16.5,106.1,12.9,102.5,8.5,102.5z M13.3,115.2l-4.8-4.8h0v-6.7c3.7,0,6.8,3,6.8,6.8C15.3,112.3,14.5,114,13.3,115.2z"/>
<g id="Inbox_Hover">
	<g>
		<path class="st0" d="M5,93.5c-1.8-1.5-3.7-3.4-4.5-4.3v8.7L5,93.5z"/>
		<path class="st0" d="M8.4,94.4c1.7,0,5.7-4.1,7.4-5.9H1C2.7,90.4,6.7,94.4,8.4,94.4z"/>
		<path class="st0" d="M16.5,89.1c-0.7,0.8-2.7,2.9-4.6,4.4l4.6,4.6V89.1z"/>
		<path class="st0" d="M11.2,94.1c-1,0.7-2,1.2-2.8,1.2c-0.8,0-1.7-0.5-2.8-1.2l-4.5,4.4h14.5L11.2,94.1z"/>
	</g>
</g>
<g id="Inbox_x2F_Read">
	<path class="st1" d="M5,76.5c-1.8-1.5-3.7-3.4-4.5-4.3v8.7L5,76.5z"/>
	<path class="st1" d="M8.4,77.4c1.7,0,5.7-4.1,7.4-5.9H1C2.7,73.4,6.7,77.4,8.4,77.4z"/>
	<path class="st1" d="M16.5,72.1c-0.7,0.8-2.7,2.9-4.6,4.4l4.6,4.6V72.1z"/>
	<path class="st1" d="M11.2,77.1c-1,0.7-2,1.2-2.8,1.2c-0.8,0-1.7-0.5-2.8-1.2l-4.5,4.4h14.5L11.2,77.1z"/>
</g>
<g id="New_Message_Hover">
	
		<rect x="0.9" y="57.5" transform="matrix(0.7071 -0.7071 0.7071 0.7071 -39.9801 23.2679)" class="st0" width="14.3" height="4.8"/>
	<path class="st0" d="M15.7,55.6l-3.4-3.4l0.1-0.1c0.9-0.9,2.3-0.9,3.2,0l0.2,0.2c0.9,0.9,0.9,2.3,0,3.2L15.7,55.6z"/>
	<polygon class="st0" points="3.9,67.5 0.5,67.5 0.5,64.1 	"/>
</g>
<g id="New_Message">
	
		<rect x="0.9" y="40.5" transform="matrix(0.7071 -0.7071 0.7071 0.7071 -27.9594 18.2888)" class="st1" width="14.3" height="4.8"/>
	<path class="st1" d="M15.7,38.6l-3.4-3.4l0.1-0.1c0.9-0.9,2.3-0.9,3.2,0l0.2,0.2c0.9,0.9,0.9,2.3,0,3.2L15.7,38.6z"/>
	<polygon class="st1" points="3.9,50.5 0.5,50.5 0.5,47.1 	"/>
</g>
<path id="Archive_Active" class="st0" d="M16.5,156.5l-1.8-3H2.3l-1.8,3v13h16V156.5z M8.5,166.7l-3.8-3.8h2.6v-5.3h2.4v5.3h2.6
	L8.5,166.7z M1.4,156.5l1.2-2.3h11.7l1.2,2.3H1.4z"/>
<path id="Archive" class="st1" d="M16.5,139.5l-1.8-3H2.3l-1.8,3v13h16V139.5z M8.5,149.7l-3.8-3.8h2.6v-5.3h2.4v5.3h2.6L8.5,149.7z
	 M1.4,139.5l1.2-2.3h11.7l1.2,2.3H1.4z"/>
<path id="Settings" class="st1" d="M14,30.8l-0.8-1.4c0.5-0.6,0.9-1.2,1.1-1.9h1.6c0.2,0,0.3-0.1,0.4-0.3c0.3-1.1,0.3-2.3,0-3.5
	c0-0.2-0.2-0.3-0.4-0.3h-1.6c-0.3-0.7-0.6-1.4-1.1-1.9l0.8-1.3c0.1-0.1,0.1-0.4-0.1-0.5C13,18.9,12,18.4,10.9,18
	c-0.2,0-0.4,0-0.4,0.2l-0.8,1.3c-0.8-0.1-1.5-0.1-2.3,0l-0.8-1.3C6.5,18,6.3,18,6.1,18C5,18.4,4,18.9,3.1,19.7
	c-0.1,0.1-0.2,0.3-0.1,0.5l0.8,1.4c-0.5,0.6-0.9,1.2-1.1,1.9H1.1c-0.2,0-0.3,0.1-0.4,0.3c-0.3,1.1-0.3,2.3,0,3.5
	c0,0.2,0.2,0.3,0.4,0.3h1.6c0.3,0.7,0.6,1.4,1.1,1.9L3,30.8c-0.1,0.1-0.1,0.4,0.1,0.5C3.9,32.1,5,32.6,6.1,33c0.2,0,0.4,0,0.4-0.2
	l0.8-1.3c0.8,0.1,1.5,0.1,2.3,0l0.8,1.3c0.1,0.2,0.3,0.2,0.4,0.2c1.1-0.3,2.2-0.9,3.1-1.7C14.1,31.1,14.1,30.9,14,30.8z M7.2,27.7
	C6,27,5.6,25.4,6.3,24.2s2.3-1.6,3.5-0.9s1.6,2.3,0.9,3.5C10,28,8.4,28.4,7.2,27.7z"/>
<path id="Refresh" class="st2" d="M12.4,4.3c-1.1-1-2.5-1.5-3.9-1.5c-2.7,0-4.9,1.8-5.6,4.4c0,0.2-0.2,0.3-0.4,0.3h-2
	c-0.3,0-0.4-0.2-0.4-0.5C0.9,3,4.3,0,8.5,0c2.3,0,4.4,0.9,5.9,2.3l1.2-1.2C16.1,0.6,17,1,17,1.7v4.6c0,0.4-0.4,0.8-0.8,0.8h-4.6
	c-0.7,0-1.1-0.9-0.6-1.4L12.4,4.3z M0.8,9.9h4.6c0.7,0,1.1,0.9,0.6,1.4l-1.4,1.4c1.1,1,2.5,1.6,3.9,1.6c2.6,0,4.9-1.8,5.6-4.4
	c0.1-0.2,0.2-0.3,0.4-0.3h2c0.3,0,0.5,0.2,0.4,0.5C16.1,14,12.6,17,8.5,17c-2.3,0-4.3-0.9-5.9-2.4l-1.2,1.2C0.9,16.4,0,16,0,15.3
	v-4.6C0,10.2,0.4,9.9,0.8,9.9z"/>
<polygon id="Outgoing_Message_1_" class="st1" points="10.3,399.2 10.3,391.5 6.7,391.5 6.7,399.2 3,399.2 8.5,404.7 14,399.2 "/>
<g>
	<rect x="1.7" y="405.4" class="st1" width="13.6" height="2"/>
</g>
</svg>
